<?xml version="1.0" encoding="UTF-8"?><svg id="Layer_3" xmlns="http://www.w3.org/2000/svg" viewBox="0 0 590 484.5"><defs><style>.cls-1{fill:#fff;}.cls-2{fill:#e3000f;}</style></defs><g id="Layer_1"><path class="cls-1" d="M389.3,224.2c26.7-13.6,43.5-37.6,39.5-77.5-4.4-45.7-38.2-66-84.1-74.4V0h-59.1v68.7c-7.9,0-38.6-.1-38.6-.1V0h-59.1s0,68.7,0,68.7h-92.9v49.3s33.3,0,33.5,0c18.7,0,24.8,10.8,26.5,20.2v86.2s0,121.1,0,121.1c-.8,5.9-4.3,15.2-17.3,15.3-1.8,0-42.7,0-42.7,0v55h60c11.2,0,22.2.2,32.9.3v68.5s59.1,0,59.1,0v-68.7s30.8-.1,38.6-.1v68.8h59.1v-70.8c62.5-7.7,104.8-30.6,110.7-94.2,5.4-58.5-22.1-84.7-66.1-95.2ZM235.1,121.4c26,0,107.8-8.3,107.8,46,0,52-81.8,45.9-107.8,45.9v-91.9ZM235.1,361.1v-101.4c31.3,0,129.2-9,129.3,50.7,0,57.2-98,50.7-129.3,50.7Z"/><polygon class="cls-2" points="22.6 258.1 0 316.9 0 316.9 139.2 316.9 139.2 258.1 22.6 258.1"/><polygon class="cls-1" points="37.4 219.3 22.6 258.1 139.2 258.1 139.2 219.3 37.4 219.3"/><polygon class="cls-2" points="60 160.5 37.4 219.3 139.2 219.3 139.2 160.5 60 160.5"/><path class="cls-1" d="M567.4,219.3h-145s0,0,0,0c18.2,9.1,31.4,22.1,39.6,38.7h90.6l14.9-38.7Z"/><path class="cls-2" d="M530,316.9l22.6-58.8h-90.6c7.9,16.1,11,35.8,9.4,58.8h58.6Z"/><path class="cls-2" d="M590,160.5h-144.9c-.5,23.6-8.1,43.5-22.6,58.8h145l22.6-58.8Z"/></g></svg>