<?xml version="1.0" encoding="UTF-8"?><svg id="Layer_3" xmlns="http://www.w3.org/2000/svg" viewBox="0 0 1074.4 182.2"><defs><style>.cls-1{fill:#fff;}.cls-2{fill:#e3000f;}</style></defs><g id="Layer_1"><path class="cls-1" d="M146.4,84.3c10-5.1,16.3-14.1,14.9-29.1-1.7-17.2-14.4-24.8-31.6-28V0h-22.2v25.8c-3,0-14.5,0-14.5,0V0h-22.2s0,25.8,0,25.8h-34.9v18.5s12.5,0,12.6,0c7,0,9.3,4.1,10,7.6v32.4s0,45.5,0,45.5c-.3,2.2-1.6,5.7-6.5,5.7-.7,0-16.1,0-16.1,0v20.7h22.6c4.2,0,8.3,0,12.4.1v25.8s22.2,0,22.2,0v-25.8s11.6,0,14.5,0v25.9h22.2v-26.6c23.5-2.9,39.4-11.5,41.6-35.4,2-22-8.3-31.8-24.9-35.8ZM88.4,45.6c9.8,0,40.5-3.1,40.5,17.3,0,19.6-30.7,17.3-40.5,17.3v-34.6ZM88.4,135.8v-38.1c11.8,0,48.6-3.4,48.6,19,0,21.5-36.8,19.1-48.6,19.1Z"/><polygon class="cls-2" points="8.5 97 0 119.1 0 119.1 52.3 119.1 52.3 97 8.5 97"/><polygon class="cls-1" points="14.1 82.5 8.5 97 52.3 97 52.3 82.5 14.1 82.5"/><polygon class="cls-2" points="22.6 60.4 14.1 82.5 52.3 82.5 52.3 60.4 22.6 60.4"/><path class="cls-1" d="M213.3,82.5h-54.5s0,0,0,0c6.9,3.4,11.8,8.3,14.9,14.6h34.1l5.6-14.6Z"/><path class="cls-2" d="M199.3,119.1l8.5-22.1h-34.1c3,6.1,4.1,13.5,3.5,22.1h22Z"/><path class="cls-2" d="M221.8,60.4h-54.5c-.2,8.9-3,16.4-8.5,22.1h54.5l8.5-22.1Z"/><path class="cls-1" d="M345,108c0,8.6-2.3,14.7-7,18.5-4.6,3.8-12.1,5.6-22.4,5.6h-31V48.1h30.8c9.3,0,15.9,1.6,19.8,4.7,3.9,3.1,5.9,8.5,5.9,16.1s-1,9.6-2.9,12.6c-1.9,2.9-5.2,5-9.7,6,5.4.7,9.5,2.8,12.3,6.2,2.7,3.4,4.1,8.2,4.1,14.3ZM330.7,70.5c0-4.6-1.1-7.9-3.4-9.7-2.2-1.8-6.1-2.7-11.7-2.7h-19.6v26.3h19.6c5.4,0,9.2-1.1,11.5-3.2,2.3-2.1,3.5-5.7,3.5-10.6ZM334,107.3c0-5-1.4-8.5-4.2-10.5-2.8-2-7.5-2.9-14.2-2.9h-19.6v28h19.6c6.7,0,11.4-1.1,14.2-3.2,2.8-2.1,4.2-5.9,4.2-11.4Z"/><path class="cls-1" d="M370.4,54.4h-11.8v-11.4h11.8v11.4ZM370,132.1h-11v-66.2h11v66.2Z"/><path class="cls-1" d="M426.5,121.8v9.2c-1.4.6-3.4,1.1-5.8,1.5-2.5.4-4.8.6-7,.6-8,0-13.8-1.8-17.2-5.4-3.4-3.6-5.2-9.7-5.2-18.5v-34h-9.9v-9.4h10.1l1.7-16.1h9.1v16.1h23.6v9.4h-23.6v33.6c0,5.4,1,9.2,3,11.1,2,2,5.6,2.9,10.7,2.9s3.5-.1,5.6-.4c2.1-.3,3.8-.5,5-.8Z"/><path class="cls-1" d="M482.9,119v9.2c-2.2,1.4-5.6,2.6-10,3.6-4.4.9-9,1.4-13.9,1.4-9.4,0-16-2.5-19.8-7.6-3.8-5.1-5.7-14-5.7-26.7s2.5-21.2,7.4-26.5c4.9-5.2,13.3-7.8,25.1-7.8s4.9,0,7,.2c2.1.1,4.8.4,8.1.9v9.8c-3.3-.4-6-.7-8.1-.8-2.1,0-4.4-.1-7-.1-8.4,0-14.1,1.7-17,5.2-2.9,3.4-4.4,9.8-4.4,19.2s1.2,15.7,3.5,19.1c2.3,3.3,6.8,5,13.4,5s7.5-.4,11.4-1.1c3.9-.8,7.3-1.7,10.1-2.9Z"/><path class="cls-1" d="M553.1,98.9c0,12.5-2.3,21.4-6.9,26.5-4.6,5.2-12.5,7.8-23.7,7.8s-19.5-2.5-24-7.5c-4.5-5-6.7-13.9-6.7-26.8s2.3-21.5,6.9-26.6c4.6-5.1,12.5-7.7,23.8-7.7s19.5,2.5,23.9,7.5c4.4,5,6.6,13.9,6.6,26.8ZM502.9,98.7c0,9.8,1.3,16.3,3.9,19.5,2.6,3.2,7.9,4.8,15.8,4.8s12.9-1.7,15.5-5c2.7-3.3,4-9.8,4-19.2s-1.3-16.3-3.8-19.5c-2.5-3.2-7.8-4.8-15.7-4.8s-13,1.7-15.7,5c-2.7,3.3-4,9.7-4,19.3Z"/><path class="cls-1" d="M579.1,54.4h-11.8v-11.4h11.8v11.4ZM578.7,132.1h-11v-66.2h11v66.2Z"/><path class="cls-1" d="M607.4,132.1h-11v-66.2h9.5l.5,6.4h.4c3.6-2.7,7.3-4.6,11.2-5.9,3.9-1.2,8.2-1.9,13.1-1.9,7.3,0,12.9,1.8,16.7,5.5,3.8,3.7,5.7,9.1,5.7,16.2v45.8h-11v-44.5c0-4.5-1.3-7.8-3.8-9.9-2.5-2.1-6.3-3.2-11.5-3.2s-6.5.5-9.8,1.5c-3.3,1-6.7,2.5-10,4.5v51.6Z"/><path class="cls-1" d="M694.6,132.1h-12.1l33.2-84h11.8l32.8,84h-12.1l-7.6-20.2h-38.5l-7.6,20.2ZM721.4,58.5c-.9,3.1-1.9,6.4-3.1,9.9-1.2,3.5-2.4,7-3.7,10.5l-8.6,22.9h31l-8.6-22.9c-1.8-4.9-3.2-8.9-4.2-11.9-1-3-1.9-5.8-2.7-8.4Z"/><path class="cls-1" d="M791,133.2c-7.3,0-12.8-1.8-16.5-5.5-3.7-3.7-5.5-9.2-5.5-16.5v-45.3h11v44c0,4.6,1.2,7.9,3.5,9.9,2.3,2.1,6,3.1,11,3.1s6.1-.4,9.2-1.1c3.1-.8,6.2-1.9,9.3-3.6v-52.3h11v66.2h-10l-.5-5.5h-.3c-4.6,2.4-8.7,4.1-12.1,5.1-3.4,1-6.7,1.5-10,1.5Z"/><path class="cls-1" d="M864.4,74.5c-5.7,0-9.7.7-11.9,2-2.2,1.3-3.3,4.1-3.3,8.2s.5,3.8,1.5,4.9c1,1.1,2.7,1.9,4.9,2.2l17,2.5c5.4.8,9.1,2.5,11.3,5,2.1,2.5,3.2,6.5,3.2,12s-1.8,13.2-5.5,16.7c-3.7,3.4-9.7,5.2-18.2,5.2s-9.8-.3-14.2-.8c-4.4-.5-8-1.2-10.9-2.1v-10.3c2.9.9,6.4,1.6,10.5,2.2,4.2.6,8.4.9,12.8.9s9.3-.8,11.4-2.4c2.1-1.6,3.1-4.5,3.1-8.6s-.6-4.5-1.7-5.7c-1.2-1.2-3.3-2-6.3-2.5l-17-2.5c-4.3-.6-7.5-2.3-9.6-5-2.1-2.7-3.2-6.6-3.3-11.7,0-7,2.1-12.1,6.2-15.3,4.2-3.2,10.6-4.8,19.2-4.8s6.8,0,9.7.3c2.9.2,6,.5,9.2,1.1v9.8c-2.3-.4-5-.6-8.2-.9-3.1-.2-6.5-.3-10-.3Z"/><path class="cls-1" d="M938.6,121.8v9.2c-1.4.6-3.4,1.1-5.8,1.5-2.5.4-4.8.6-7,.6-8,0-13.8-1.8-17.2-5.4-3.4-3.6-5.2-9.7-5.2-18.5v-34h-9.9v-9.4h10l1.7-16.1h9.1v16.1h23.6v9.4h-23.6v33.6c0,5.4,1,9.2,3,11.1s5.6,2.9,10.7,2.9,3.5-.1,5.6-.4c2.1-.3,3.8-.5,5-.8Z"/><path class="cls-1" d="M960.5,132.1h-11v-66.2h10l.5,5.6h.5c3.5-2.1,7-3.6,10.5-4.6,3.5-1,6.9-1.5,10.3-1.5h2.9c.5,0,.9,0,1.1.1v10.6c-.6-.2-1.4-.3-2.3-.3-.9,0-2.4,0-4.4,0-3.2,0-6.4.4-9.4,1.1-3.1.8-6,1.9-8.8,3.4v51.9Z"/><path class="cls-1" d="M1008.2,54.4h-11.8v-11.4h11.8v11.4ZM1007.8,132.1h-11v-66.2h11v66.2Z"/><path class="cls-1" d="M1040.5,133.2c-6.8,0-11.8-1.6-14.9-4.9-3.2-3.3-4.8-8.4-4.8-15.5s1.9-12.2,5.8-15.2c3.8-3,10.4-4.5,19.6-4.5s6,.1,9,.4,5.7.7,8.3,1.2v-6.4c0-4.9-1.3-8.4-3.8-10.6-2.5-2.1-6.5-3.2-12.1-3.2s-7.7.2-10.9.5c-3.1.3-6.3.8-9.4,1.5v-9.5c3.6-.9,7.2-1.5,10.9-1.9,3.7-.4,7.9-.5,12.7-.5,8,0,13.8,1.9,17.7,5.6,3.8,3.7,5.8,9.4,5.8,17.2v44.8h-10l-.5-6.2h-.3c-2.7,2.1-6.1,3.9-10.4,5.2-4.2,1.3-8.5,2-12.7,2ZM1047.3,102.1c-6.1,0-10.3.7-12.7,2.2-2.4,1.5-3.6,4.1-3.6,7.8s1,6.8,2.9,8.5c2,1.7,5.2,2.6,9.6,2.6s7.1-.5,10.7-1.6c3.7-1.1,6.7-2.4,9-4v-14.2c-2.9-.4-5.7-.8-8.2-1-2.5-.2-5.2-.3-7.8-.3Z"/></g></svg>